<?xml version="1.0"?>
<svg xmlns="http://www.w3.org/2000/svg" xmlns:xlink="http://www.w3.org/1999/xlink" version="1.1" id="Capa_1" x="0px" y="0px" viewBox="0 0 512.001 512.001" style="enable-background:new 0 0 512.001 512.001;" xml:space="preserve" width="512px" height="512px" class=""><g><g>
	<g>
		<path d="M341.333,32c-17.673,0-32,14.327-32,32s14.327,32,32,32c17.673,0,32-14.327,32-32S359.006,32,341.333,32z M341.333,74.667    c-5.891,0-10.666-4.776-10.666-10.667s4.776-10.667,10.667-10.667C347.224,53.333,352,58.109,352,64    S347.224,74.667,341.333,74.667z" data-original="#000000" class="active-path" data-old_color="#000000" fill="#7DBDBC"/>
	</g>
</g><g>
	<g>
		<path d="M426.667,32c-17.673,0-32,14.327-32,32s14.327,32,32,32c17.673,0,32-14.327,32-32C458.667,46.327,444.34,32,426.667,32z     M426.667,74.667C420.776,74.667,416,69.891,416,64s4.776-10.667,10.667-10.667S437.334,58.109,437.334,64    S432.558,74.667,426.667,74.667z" data-original="#000000" class="active-path" data-old_color="#000000" fill="#7DBDBC"/>
	</g>
</g><g>
	<g>
		<path d="M213.334,53.334H32c-17.673,0-32,14.327-32,32v192c0,17.672,14.327,31.999,32,31.999h85.333V288H32    c-5.891,0-10.667-4.776-10.667-10.667v-192c0-5.891,4.776-10.667,10.667-10.667h96v74.667c0,5.891,4.776,10.667,10.667,10.667H192    c5.891,0,10.667-4.776,10.667-10.667V74.667h10.667c5.891,0,10.667,4.776,10.667,10.667v160h21.333v-160    C245.334,67.661,231.007,53.334,213.334,53.334z M181.333,138.667h-32v-64h32V138.667z" data-original="#000000" class="active-path" data-old_color="#000000" fill="#7DBDBC"/>
	</g>
</g><g>
	<g>
		<rect x="42.667" y="245.331" width="74.67" height="21.333" data-original="#000000" class="active-path" data-old_color="#000000" fill="#7DBDBC"/>
	</g>
</g><g>
	<g>
		<rect x="42.667" y="202.67" width="42.667" height="21.333" data-original="#000000" class="active-path" data-old_color="#000000" fill="#7DBDBC"/>
	</g>
</g><g>
	<g>
		<path d="M501.333,309.333H480V243.99c18.402-4.736,32-21.441,32-41.322C512,179.103,492.898,160,469.333,160h-74.667v-10.667    h74.667c17.673,0,32-14.327,32-32V32c0-17.673-14.327-32-32-32H298.667c-17.673,0-32,14.327-32,32v85.333    c0,17.673,14.327,32,32,32h74.667V160H320c-17.673,0-32,14.327-32,32v74.667h-32h-42.667c-5.891,0-10.667,4.776-10.667,10.667V288    h-37.333c-14.728,0-26.667,11.939-26.667,26.667c0,14.728,11.939,26.667,26.667,26.667h9.51L32.691,426.667H32v0.415    l-17.451,10.476c-0.746,0.451-1.434,0.992-2.048,1.611c-7.997,7.999-12.49,18.846-12.492,30.156    C0.004,492.888,19.103,511.995,42.667,512h458.667c5.891,0,10.667-4.776,10.667-10.667V320    C512,314.109,507.224,309.333,501.333,309.333z M469.333,181.334c11.782-0.001,21.334,9.551,21.334,21.333    S481.116,224,469.334,224C457.551,224,448,214.449,448,202.667S457.551,181.334,469.333,181.334z M458.667,260.416v48.917H409.75    L458.667,260.416z M448.829,240.089l-48.741,48.741c-3.911-7.123-9.795-13.006-16.917-16.917l48.741-48.741    C435.823,230.294,441.707,236.177,448.829,240.089z M384,309.333c0,11.782-9.551,21.333-21.333,21.333    c-11.782,0-21.334-9.551-21.334-21.333c0-11.782,9.551-21.333,21.333-21.333C374.448,288,384,297.551,384,309.333z     M362.666,106.667c-5.891,0-10.667,4.776-10.667,10.667V128h-53.333c-5.89,0-10.666-4.776-10.666-10.667V32    c0-5.891,4.776-10.667,10.667-10.667h170.667C475.224,21.333,480,26.109,480,32v85.333c0,5.891-4.776,10.667-10.667,10.667H416    v-10.667c0-5.891-4.776-10.667-10.667-10.667H362.666z M320,181.333h112.389c-2.894,5.001-4.806,10.639-5.462,16.657    l-68.676,68.676h-48.917V192h-0.001C309.333,186.109,314.109,181.333,320,181.333z M266.667,288h59.056    c-3.633,6.277-5.722,13.559-5.722,21.333c0,7.774,2.09,15.056,5.722,21.333h-59.056V288z M165.333,320    c-2.945,0-5.333-2.388-5.333-5.333c0-2.946,2.388-5.333,5.333-5.333h48c5.891,0,10.667-4.776,10.667-10.667V288h21.333v32H165.333    z M216.286,341.334h29.047v-0.001c0,5.891,4.776,10.667,10.667,10.667h106.667c15.79,0,29.566-8.584,36.944-21.333h35.383    l-62.065,42.667H162.984L216.286,341.334z M128,394.336v0.33h213.898l-46.548,32H74.148L128,394.336z M261.722,490.667H42.667    c-5.246,0.001-10.308-1.932-14.219-5.429c-8.784-7.853-9.538-21.339-1.685-30.123L38.613,448h223.109    c-3.633,6.277-5.722,13.559-5.722,21.333C256,477.107,258.09,484.389,261.722,490.667z M298.667,490.667    c-11.782,0-21.333-9.551-21.333-21.333c0-11.782,9.551-21.333,21.333-21.333c11.782,0,21.333,9.551,21.333,21.333    C320,481.115,310.449,490.667,298.667,490.667z M335.611,490.667c3.633-6.277,5.722-13.559,5.722-21.333    c0-14.753-7.489-27.756-18.872-35.418L472.65,330.668h18.016v159.999H335.611z" data-original="#000000" class="active-path" data-old_color="#000000" fill="#7DBDBC"/>
	</g>
</g><g>
	<g>
		<rect x="448" y="448" width="21.333" height="21.333" data-original="#000000" class="active-path" data-old_color="#000000" fill="#7DBDBC"/>
	</g>
</g><g>
	<g>
		<rect x="448" y="405.33" width="21.333" height="21.333" data-original="#000000" class="active-path" data-old_color="#000000" fill="#7DBDBC"/>
	</g>
</g><g>
	<g>
		<rect x="405.33" y="448" width="21.333" height="21.333" data-original="#000000" class="active-path" data-old_color="#000000" fill="#7DBDBC"/>
	</g>
</g></g> </svg>
