<?xml version="1.0" encoding="iso-8859-1"?>
<!-- Generator: Adobe Illustrator 19.0.0, SVG Export Plug-In . SVG Version: 6.00 Build 0)  -->
<svg version="1.1" id="Capa_1" xmlns="http://www.w3.org/2000/svg" xmlns:xlink="http://www.w3.org/1999/xlink" x="0px" y="0px"
	 viewBox="0 0 480 480" style="enable-background:new 0 0 480 480;" xml:space="preserve">
<g>
	<g>
		<path d="M400,0H80C66.745,0,56,10.745,56,24v432c0,13.255,10.745,24,24,24h320c13.255,0,24-10.745,24-24V24
			C424,10.745,413.255,0,400,0z M408,456c0,4.418-3.582,8-8,8H80c-4.418,0-8-3.582-8-8V24c0-4.418,3.582-8,8-8h320
			c4.418,0,8,3.582,8,8V456z"/>
	</g>
</g>
<g>
	<g>
		<path d="M384,88H96c-4.418,0-8,3.582-8,8v96c0,4.418,3.582,8,8,8h288c4.418,0,8-3.582,8-8V96C392,91.582,388.418,88,384,88z
			 M376,184H104v-80h272V184z"/>
	</g>
</g>
<g>
	<g>
		<path d="M216,32H96c-4.418,0-8,3.582-8,8v24c0,4.418,3.582,8,8,8h120c4.418,0,8-3.582,8-8V40C224,35.582,220.418,32,216,32z
			 M208,56H104v-8h104V56z"/>
	</g>
</g>
<g>
	<g>
		<path d="M144,216H96c-4.418,0-8,3.582-8,8v48c0,4.418,3.582,8,8,8h48c4.418,0,8-3.582,8-8v-48C152,219.582,148.418,216,144,216z
			 M136,264h-32v-32h32V264z"/>
	</g>
</g>
<g>
	<g>
		<path d="M224,216h-48c-4.418,0-8,3.582-8,8v48c0,4.418,3.582,8,8,8h48c4.418,0,8-3.582,8-8v-48C232,219.582,228.418,216,224,216z
			 M216,264h-32v-32h32V264z"/>
	</g>
</g>
<g>
	<g>
		<path d="M304,216h-48c-4.418,0-8,3.582-8,8v48c0,4.418,3.582,8,8,8h48c4.418,0,8-3.582,8-8v-48C312,219.582,308.418,216,304,216z
			 M296,264h-32v-32h32V264z"/>
	</g>
</g>
<g>
	<g>
		<path d="M384,216h-48c-4.418,0-8,3.582-8,8v48c0,4.418,3.582,8,8,8h48c4.418,0,8-3.582,8-8v-48C392,219.582,388.418,216,384,216z
			 M376,264h-32v-32h32V264z"/>
	</g>
</g>
<g>
	<g>
		<path d="M144,296H96c-4.418,0-8,3.582-8,8v48c0,4.418,3.582,8,8,8h48c4.418,0,8-3.582,8-8v-48C152,299.582,148.418,296,144,296z
			 M136,344h-32v-32h32V344z"/>
	</g>
</g>
<g>
	<g>
		<path d="M224,296h-48c-4.418,0-8,3.582-8,8v48c0,4.418,3.582,8,8,8h48c4.418,0,8-3.582,8-8v-48C232,299.582,228.418,296,224,296z
			 M216,344h-32v-32h32V344z"/>
	</g>
</g>
<g>
	<g>
		<path d="M304,296h-48c-4.418,0-8,3.582-8,8v48c0,4.418,3.582,8,8,8h48c4.418,0,8-3.582,8-8v-48C312,299.582,308.418,296,304,296z
			 M296,344h-32v-32h32V344z"/>
	</g>
</g>
<g>
	<g>
		<path d="M384,296h-48c-4.418,0-8,3.582-8,8v128c0,4.418,3.582,8,8,8h48c4.418,0,8-3.582,8-8V304C392,299.582,388.418,296,384,296z
			 M376,424h-32V312h32V424z"/>
	</g>
</g>
<g>
	<g>
		<path d="M144,376H96c-4.418,0-8,3.582-8,8v48c0,4.418,3.582,8,8,8h48c4.418,0,8-3.582,8-8v-48C152,379.582,148.418,376,144,376z
			 M136,424h-32v-32h32V424z"/>
	</g>
</g>
<g>
	<g>
		<path d="M224,376h-48c-4.418,0-8,3.582-8,8v48c0,4.418,3.582,8,8,8h48c4.418,0,8-3.582,8-8v-48C232,379.582,228.418,376,224,376z
			 M216,424h-32v-32h32V424z"/>
	</g>
</g>
<g>
	<g>
		<path d="M304,376h-48c-4.418,0-8,3.582-8,8v48c0,4.418,3.582,8,8,8h48c4.418,0,8-3.582,8-8v-48C312,379.582,308.418,376,304,376z
			 M296,424h-32v-32h32V424z"/>
	</g>
</g>
<g>
</g>
<g>
</g>
<g>
</g>
<g>
</g>
<g>
</g>
<g>
</g>
<g>
</g>
<g>
</g>
<g>
</g>
<g>
</g>
<g>
</g>
<g>
</g>
<g>
</g>
<g>
</g>
<g>
</g>
</svg>
