<?xml version="1.0" encoding="iso-8859-1"?>
<!-- Generator: Adobe Illustrator 19.0.0, SVG Export Plug-In . SVG Version: 6.00 Build 0)  -->
<svg version="1.1" id="Capa_1" xmlns="http://www.w3.org/2000/svg" xmlns:xlink="http://www.w3.org/1999/xlink" x="0px" y="0px"
	 viewBox="0 0 480 480" style="enable-background:new 0 0 480 480;" xml:space="preserve">
<g>
	<g>
		<path d="M421.648,138.336l-136-136c-0.74-0.739-1.618-1.326-2.584-1.728C282.093,0.204,281.052-0.003,280,0H64
			c-4.418,0-8,3.582-8,8v464c0,4.418,3.582,8,8,8h352c4.418,0,8-3.582,8-8V144C423.992,141.876,423.147,139.841,421.648,138.336z
			 M288,27.312L396.688,136H288V27.312z M408,464H72V16h200v128c0,4.418,3.582,8,8,8h128V464z"/>
	</g>
</g>
<g>
	<g>
		<path d="M248,72H96c-4.418,0-8,3.582-8,8s3.582,8,8,8h152c4.418,0,8-3.582,8-8S252.418,72,248,72z"/>
	</g>
</g>
<g>
	<g>
		<path d="M248,136H96c-4.418,0-8,3.582-8,8s3.582,8,8,8h152c4.418,0,8-3.582,8-8S252.418,136,248,136z"/>
	</g>
</g>
<g>
	<g>
		<path d="M384,200H96c-4.418,0-8,3.582-8,8s3.582,8,8,8h288c4.418,0,8-3.582,8-8S388.418,200,384,200z"/>
	</g>
</g>
<g>
	<g>
		<path d="M384,264H96c-4.418,0-8,3.582-8,8s3.582,8,8,8h288c4.418,0,8-3.582,8-8S388.418,264,384,264z"/>
	</g>
</g>
<g>
	<g>
		<path d="M384,328H96c-4.418,0-8,3.582-8,8s3.582,8,8,8h288c4.418,0,8-3.582,8-8S388.418,328,384,328z"/>
	</g>
</g>
<g>
	<g>
		<path d="M384,392H96c-4.418,0-8,3.582-8,8s3.582,8,8,8h288c4.418,0,8-3.582,8-8S388.418,392,384,392z"/>
	</g>
</g>
<g>
</g>
<g>
</g>
<g>
</g>
<g>
</g>
<g>
</g>
<g>
</g>
<g>
</g>
<g>
</g>
<g>
</g>
<g>
</g>
<g>
</g>
<g>
</g>
<g>
</g>
<g>
</g>
<g>
</g>
</svg>
